<svg width="48" height="48" viewBox="0 0 48 48" fill="none" xmlns="http://www.w3.org/2000/svg">
<rect width="48" height="48" rx="6" fill="#282C34"/>
<path d="M21.688 27.544C21.688 28.632 21.56 29.656 21.304 30.616C21.0693 31.576 20.6427 32.4187 20.024 33.144C19.4267 33.848 18.6053 34.4133 17.56 34.84C16.536 35.2453 15.2347 35.448 13.656 35.448C12.2053 35.448 10.9573 35.2773 9.912 34.936C8.86667 34.5733 8.00267 34.1573 7.32 33.688L8.984 29.816C9.60267 30.1787 10.264 30.4987 10.968 30.776C11.672 31.0533 12.44 31.192 13.272 31.192C14.488 31.192 15.3627 30.8933 15.896 30.296C16.4293 29.6987 16.696 28.696 16.696 27.288V12.824H21.688V27.544Z" fill="white"/>
<path d="M43.1406 36.5938V41.6875H23.9375V36.5938H43.1406Z" fill="#08B582"/>
<rect x="41" y="36" width="3" height="6" fill="#282C34"/>
</svg>
