<svg xmlns="http://www.w3.org/2000/svg" xmlns:xlink="http://www.w3.org/1999/xlink" xmlns:lucid="lucid" width="1260" height="681"><g transform="translate(-110 -49)" lucid:page-tab-id="0_0"><path d="M580 60c-33.12 0-60 26.88-60 60 0 33.24 26.88 60 60 60 33.24 0 60-26.88 60-60 0-33.24-26.76-60-60-60zm15.84 112.08V162c0-4.08-2.28-7.56-5.4-9.84h.6c5.76-.6 10.68-2.4 10.68-2.4s7.32-2.28 11.4-6.96c4.2-5.16 5.4-12.36 5.4-12.36s1.2-7.92 0-14.28c-1.2-5.88-6-10.32-6-10.32s1.56-4.2 1.32-8.28c0-4.08-1.92-8.16-1.92-8.16s-3.48-.36-7.32 1.2c-4.44 1.92-9.48 5.4-9.48 5.4s-3.48-1.2-7.56-1.56c-3.72-.72-8.16-.72-8.16-.72s-4.44 0-8.28.72c-4.08.6-7.56 1.56-7.56 1.56s-5.04-3.48-9.48-5.4c-3.72-1.56-7.2-1.2-7.2-1.2s-1.92 4.08-1.92 8.16c0 4.2 1.2 8.28 1.2 8.28s-4.32 4.08-5.88 10.32c-1.68 6.36 0 14.28 0 14.28s.84 7.2 5.28 12.36c4.2 4.68 11.4 6.96 11.4 6.96s5.04 1.8 10.68 2.4h.96c-2.16 2.28-4.44 5.76-4.44 9.84v10.08c-22.32-6.6-38.52-27.48-38.52-52.08 0-30 24.36-54.24 54.36-54.24S634.72 90 634.72 120c0 24.6-16.44 45.48-38.88 52.08z" stroke="#000" stroke-opacity="0"/><use xlink:href="#a" transform="matrix(1,0,0,1,490,189) translate(62.05 14.4)"/><use xlink:href="#b" transform="matrix(1,0,0,1,490,189) translate(47.074999999999996 36)"/><path d="M120 300h120v120H120V300z" stroke="#fff" stroke-opacity="0" fill="#693cc5"/><path d="M163.67 368.7c2.12.76 4.02 1.1 6.27 1.18 1.42.12 2.7-.23 3.86-1.07.92-.86 1.38-1.93 1.32-3.2.1-1.3-.3-2.47-1.25-3.4-1.26-.84-2.58-1.17-4.1-1.05-1.8.02-3.33.1-5.1.32v-2.26l.62-9.87h12.03V352H168l-.43 6.7c1.1-.22 2.06-.3 3.2-.3 2.12-.15 3.96.48 5.58 1.86 1.44 1.4 2.12 3.17 2 5.18.07 2.08-.73 3.9-2.33 5.24-1.82 1.44-3.85 2.1-6.18 2-2.3 0-4.2-.4-6.3-1.33zM189.8 359.1H190.4c1.98-.14 3.72.42 5.24 1.7 1.38 1.3 2.03 2.93 1.92 4.8.06 2.06-.76 3.83-2.36 5.14-1.87 1.4-3.9 2.04-6.26 1.92-2.2 0-4.1-.42-6.12-1.3v-2.65c2.06.76 3.92 1.1 6.12 1.18 1.45.12 2.7-.26 3.87-1.1.97-.84 1.44-1.94 1.35-3.2 0-2.67-1.66-4-5.03-4-1.12 0-2.08.04-3.2.16v-2.18l6.93-7.55h-9.68v-2.7h13.43v2.62z" stroke="#fff" stroke-opacity="0" fill="#fff"/><path d="M180 390.4c-.3 0-.57-.06-.82-.24-5.44-3.2-10.56-5.15-16.76-6.4-3.4-.58-14.4-3.2-14.4-11.18 0-3.62 1.42-6.04 3.2-9.06 2.76-4.1 4.17-8.23 4.36-13.15 0-4.74-1.22-8.7-3.84-12.67-.38-.6-.32-1.3.13-1.9l2.56-3.2c.5-.6 1.34-.76 2.04-.35 3.46 2 6.78 2.9 10.8 2.96 4.42.07 8.2-1.1 11.78-3.72.57-.4 1.34-.4 1.85 0 3.65 2.6 7.42 3.8 11.83 3.73 3.97-.05 7.36-1 10.8-2.95.72-.4 1.55-.24 2.06.36l2.55 3.2c.44.54.5 1.3.12 1.9-2.62 3.9-3.77 7.93-3.83 12.67 0 5.7 2.3 9.6 4.35 13.15 1.78 3.02 3.18 5.44 3.18 9.06 0 8-11 10.6-14.4 11.2-6.2 1.23-11.3 3.13-16.74 6.38-.26.18-.5.24-.83.24zm-24.93-53.6c2.5 4.27 3.64 8.48 3.64 13.4 0 6.57-2.6 11.13-4.78 14.74-1.6 2.84-2.7 4.73-2.7 7.46 0 5.68 9.8 7.76 11.7 8.1 6.34 1.25 11.46 3.2 17.02 6.4 5.57-3.2 10.75-5.15 17.02-6.4 1.98-.34 11.76-2.42 11.76-8.1 0-2.73-1.08-4.62-2.75-7.46-2.1-3.6-4.8-8.17-4.8-14.75.07-4.92 1.22-9.13 3.78-13.4l-1.02-1.23c-3.6 1.83-7.1 2.72-11.2 2.72-4.73.05-8.76-1.07-12.8-3.68-3.95 2.6-8.04 3.73-12.78 3.67-4.1 0-7.54-.9-11.2-2.73z" stroke="#fff" stroke-opacity="0" fill="#fff"/><path d="M180.03 400c-.4 0-.72-.08-1.04-.32-5.68-4.08-11.2-6.56-18-8-13.18-2.4-21.02-9.67-21.02-19.26.16-4.88 1.44-9.04 4.24-13.1 1.76-2.97 3.2-5.53 3.2-9.05-.16-4.88-2.16-8.95-5.84-12.23-.72-.48-.88-1.52-.32-2.24.08 0 .08-.08.08-.08 0-.16 9.44-11.43 11.6-14.3.23-.5.7-.73 1.2-.73.55 0 .95.15 1.35.55 3.03 3.6 6.95 5.6 11.74 5.84 4.48 0 8-2 11.35-6.4.63-.73 1.75-.9 2.47-.25l.24.24c3.37 4.47 6.9 6.4 11.36 6.4 4.8-.25 8.7-2.25 11.75-5.85.4-.4.8-.56 1.37-.56.48 0 .96.23 1.2.7 2.16 2.9 11.5 14.16 11.6 14.32.23.32.4.72.3 1.2 0 .48-.23.8-.55 1.12-3.68 3.28-5.67 7.35-5.83 12.23 0 3.52 1.5 6.08 3.18 9.04 2.8 4.08 4.08 8.24 4.24 13.12 0 9.6-7.83 16.87-21.02 19.27-6.8 1.42-12.3 3.82-18 7.98-.23.16-.55.32-.87.32zm-35.1-63.4c3.85 3.84 5.77 8.3 5.85 13.67 0 4.4-1.84 7.6-3.68 10.7-1.92 3.45-3.76 6.57-3.76 11.53 0 11.67 14 15.1 18.23 15.9 6.95 1.45 12.63 3.84 18.46 7.84 5.76-4 11.43-6.4 18.4-7.83 4.22-.8 18.2-4.23 18.2-15.9 0-4.96-1.83-8-3.74-11.52-1.85-3.2-3.7-6.4-3.7-10.7.1-5.37 2-9.84 5.84-13.68-2.15-2.56-6.95-8.4-9.5-11.67-3.6 3.5-7.84 5.35-12.8 5.5-5.2 0-9.6-2.15-12.8-6.14-3.27 3.98-7.66 6.14-12.86 6.14-4.95-.16-9.2-2-12.8-5.5-2.3 3.26-7.18 9.1-9.34 11.66z" stroke="#fff" stroke-opacity="0" fill="#fff"/><use xlink:href="#c" transform="matrix(1,0,0,1,90,429) translate(49.29012345679012 17.77777777777778)"/><use xlink:href="#d" transform="matrix(1,0,0,1,90,429) translate(44.96913580246914 44.44444444444444)"/><use xlink:href="#e" transform="matrix(1,0,0,1,90,429) translate(110.3395061728395 44.44444444444444)"/><path d="M520 320h120v120H520V320z" stroke="#fff" stroke-opacity="0" fill="#d6242d"/><path d="M584.64 409.42h-41.7c-.9 0-1.63-.72-1.63-1.63 0-.3.06-.53.24-.77L562 370.5c.26-.5.75-.82 1.3-.82.58 0 1.07.24 1.38.7l5.76 8.84c.3.47.36 1.07.1 1.6l-8.33 15.96H580c.64 0 1.18.36 1.45.9l4.63 9.63c.27.53.22 1.08-.1 1.6-.35.4-.8.56-1.34.52zm-39.06-3.22h36.5l-3.1-6.4h-19.42c-.58 0-1.08-.28-1.4-.75-.26-.52-.26-1.12 0-1.6l9.13-17.44-3.83-5.6zM600.7 409.43h-10.04c-.62 0-1.13-.32-1.42-.85l-23.17-42c-.25-.43-.25-.97 0-1.4l3.75-8.36c.26-.6.77-.9 1.35-.97.62-.05 1.17.27 1.5.8l29.42 50.42c.43.8.17 1.77-.6 2.2-.25.16-.5.22-.8.22zm-9.13-3.2h6.4l-26.5-45.4-2.23 4.9zM617.1 409.4H606.7c-.6 0-1.1-.3-1.4-.82L573.4 353c-.3-.53-.3-1.1 0-1.58.28-.53.78-.83 1.37-.83h9.82c.6 0 1.1.3 1.4.76L618.46 407c.46.76.18 1.76-.6 2.17-.22.18-.5.24-.76.24zm-9.47-3.17h6.64l-30.56-52.46h-6.1z" stroke="#fff" stroke-opacity="0" fill="#fff"/><use xlink:href="#f" transform="matrix(1,0,0,1,490,449) translate(25.709876543209887 17.77777777777778)"/><use xlink:href="#g" transform="matrix(1,0,0,1,490,449) translate(81.6358024691358 17.77777777777778)"/><use xlink:href="#h" transform="matrix(1,0,0,1,490,449) translate(49.32098765432098 44.44444444444444)"/><path d="M520 540h120v120H520V540z" stroke="#fff" stroke-opacity="0" fill="#d6242d"/><path d="M608 564h-61.64c-3.46.16-6.1 3.12-5.97 6.55v39.7c-.15 3.43 2.5 6.4 5.96 6.55h34.03v-3.22h-34.04c-1.7-.2-2.87-1.7-2.73-3.33v-27.03h28.8v23.97c0 .9.67 1.57 1.55 1.57h12.82v-3.16h-10.46v-.47c0-5.6 3.46-10.3 8.84-11.88 2.58 1.16 5.23 1.16 7.88 0 3.02.9 5.38 2.7 7.07 5.44l2.73-1.6c-1.77-2.8-3.98-4.75-7-6.12 1.4-1.64 2.06-3.43 2.06-5.54 0-4.86-3.97-8.82-8.84-8.82-4.78 0-8.76 3.96-8.76 8.82.07 2.06.73 3.85 2.06 5.44-2.87 1.26-5 3.1-6.7 5.8v-21.5h27.18v22.41h3.17v-14.36h4.78v16h3.25v-28.67-.06c.15-3.5-2.57-6.4-6.04-6.5zm-18.92 15.8c3.1 0 5.6 2.47 5.68 5.53-.08 2.06-1.1 3.8-2.95 4.8-1.76.96-3.67.96-5.37 0-1.84-1-2.87-2.74-2.94-4.8.06-3.06 2.56-5.54 5.58-5.54zm16.95.2v-6.4c0-.9-.74-1.57-1.62-1.57H574c-.88 0-1.54.68-1.54 1.58v6.4h-28.8v-9.45c-.15-1.64 1.03-3.12 2.72-3.33H608c1.64.2 2.9 1.64 2.74 3.33V580z" stroke="#fff" stroke-opacity="0" fill="#fff"/><path d="M546.83 591.12h17.57v3.2h-17.57v-3.2zM546.83 599.12H558v3.2h-11.17v-3.2zM561.23 599.12H566v3.2h-4.77v-3.2zM603.4 636.08c-8.9.03-16.2-7.15-16.23-16.1-.03-8.94 7.16-16.22 16.1-16.25.76 0 1.37.03 2.12.13 8.84 1.1 15.16 9.2 14.06 18.05-.4 3.3-1.6 6-3.73 8.52-1.6 1.8-3.24 3.07-5.42 4.14-2.25 1.03-4.36 1.52-6.9 1.52zm0-29.15c-2.13 0-3.98.45-5.9 1.42-6.18 3.24-8.7 10.68-5.76 17.02 3.02 6.5 10.73 9.32 17.25 6.28 1.74-.84 3.06-1.85 4.3-3.3 1.75-2.04 2.72-4.24 3.04-6.9.85-7.1-4.2-13.55-11.34-14.42-.55-.07-1.04-.1-1.62-.1z" stroke="#fff" stroke-opacity="0" fill="#fff"/><path d="M600.88 626.72c-.44 0-.82-.16-1.13-.47l-5.17-5.16 2.22-2.27 4.02 4.03 9.13-9.13 2.27 2.27-10.27 10.25c-.3.3-.65.46-1.07.47z" stroke="#fff" stroke-opacity="0" fill="#fff"/><use xlink:href="#c" transform="matrix(1,0,0,1,490,669) translate(49.29012345679012 17.77777777777778)"/><use xlink:href="#i" transform="matrix(1,0,0,1,490,669) translate(51.79012345679012 44.44444444444444)"/><path d="M920 540h120v120H920V540z" stroke="#fff" stroke-opacity="0" stroke-width="2" fill="#d86613"/><path d="M1016.8 640h-19.72c-.64 0-1.15-.32-1.4-.88l-27.92-58.32h-11.78c-.9 0-1.6-.72-1.6-1.6v-17.6c0-.88.7-1.6 1.6-1.6h24.65c.64 0 1.15.32 1.4.88l27.8 58.32h6.97c.9 0 1.6.72 1.6 1.6v17.6c0 .88-.7 1.6-1.6 1.6zm-18.7-3.2h17.1v-14.4h-6.4c-.64 0-1.15-.32-1.4-.88l-27.8-58.32H957.6v14.4h11.2c.65 0 1.16.32 1.48.88z" stroke="#fff" stroke-opacity="0" stroke-width="2" fill="#fff"/><path d="M963.96 640h-20.8c-.55 0-1.05-.3-1.37-.73-.33-.54-.33-1.12-.08-1.6l21.78-45.46c.24-.58.8-.92 1.4-.92.65 0 1.18.34 1.46.88l10.4 21.43c.26.43.26.92 0 1.4L965.42 639c-.2.63-.77 1.02-1.44 1.02zm-18.24-3.22h17.24l10.6-22.36-8.6-17.88z" stroke="#fff" stroke-opacity="0" stroke-width="2" fill="#fff"/><use xlink:href="#f" transform="matrix(1,0,0,1,890.0000000000001,669) translate(21.944444444444443 17.77777777777778)"/><use xlink:href="#j" transform="matrix(1,0,0,1,890.0000000000001,669) translate(77.87037037037035 17.77777777777778)"/><path d="M920 320h120v120H920V320z" stroke="#fff" stroke-opacity="0" stroke-width="2" fill="#3b48cc"/><path d="M980 340c-8.72 0-16.23 2.4-23.35 7.54-17.9 12.86-22 37.88-9.12 55.8l2.56-1.9c-11.84-16.47-8.1-39.46 8.4-51.3 16.54-11.9 39.5-8.18 51.4 8.36 4.72 6.52 6.88 13.43 6.88 21.47 0 8.1-2.16 14.95-6.87 21.47l2.57 1.9c5.1-7.1 7.5-14.57 7.5-23.3 0-22.1-17.9-40.04-39.97-40.04z" stroke="#fff" stroke-opacity="0" stroke-width="2" fill="#fff"/><path d="M1000.8 403.4v-5.83c0-.85-.73-1.58-1.58-1.58h-17.64v-9.62h17.64c.85 0 1.58-.73 1.58-1.58v-24.02c0-.85-.73-1.58-1.58-1.58h-38.44c-.85 0-1.58.73-1.58 1.58v24.02c0 .85.73 1.58 1.58 1.58h17.64v9.6h-17.64c-.85 0-1.58.74-1.58 1.6v5.83c-2.75.62-4.8 2.63-5.44 5.42-.85 3.9 1.58 7.73 5.44 8.64 3.9.85 7.76-1.58 8.6-5.47.9-3.85-1.53-7.74-5.38-8.6v-4.18h16v6.56c-2.8.67-4.8 2.68-5.44 5.42-.9 3.9 1.53 7.72 5.44 8.63 3.85.9 7.7-1.52 8.6-5.4.9-3.9-1.53-7.73-5.44-8.65v-6.56h16v4.2c-2.74.6-4.75 2.6-5.38 5.4-.9 3.9 1.53 7.73 5.38 8.64 3.9.85 7.77-1.58 8.66-5.47.85-3.85-1.58-7.74-5.44-8.6zm-14-30.52l10.78-8.7v17.28zm-6.8 1.4l-14.68-11.86h29.36zm-6.92-1.46l-10.66 8.64V364.2zm2.6 2.07l3.32 2.73c.58.48 1.42.48 2 0l3.22-2.68 10.3 8.27h-29.2zm-10.9 35.5c0 2.2-1.78 4.02-4 4.02-2.17 0-3.96-1.83-3.96-4 0-2.2 1.8-4.03 3.96-4.03 2.22 0 4 1.82 4 4zm19.23 2.38c0 2.25-1.78 4-4 4-2.22 0-4-1.75-4-4 0-2.2 1.78-3.96 4-3.96 2.22 0 4 1.77 4 3.96zm15.22 1.64c-2.22 0-4-1.83-4-4 0-2.2 1.78-4.03 4-4.03 2.17 0 3.96 1.82 3.96 4 0 2.2-1.8 4.02-3.96 4.02z" stroke="#fff" stroke-opacity="0" stroke-width="2" fill="#fff"/><use xlink:href="#k" transform="matrix(1,0,0,1,890.0000000000001,449) translate(25.37037037037038 17.77777777777778)"/><use xlink:href="#l" transform="matrix(1,0,0,1,890.0000000000001,449) translate(99.25925925925925 17.77777777777778)"/><use xlink:href="#m" transform="matrix(1,0,0,1,890.0000000000001,449) translate(20.37037037037038 44.44444444444444)"/><use xlink:href="#n" transform="matrix(1,0,0,1,890.0000000000001,449) translate(100.49382716049384 44.44444444444444)"/><path d="M1240 540h120v120h-120V540z" stroke="#fff" stroke-opacity="0" stroke-width="2" fill="#3f8624"/><path d="M1338.3 604.06c-.47-2.48-3.3-4.25-5.3-5.53-.62-.4-2.3-1.04-2.46-1.6 0-.4 0-.8.16-1.2l1.6-11.46 1.4-10.17c.37-3.05-1.1-5.13-3.62-6.9-5.13-3.6-11.88-5.04-17.94-6-7.97-1.28-14.95-1.52-23-.72-7.28.48-13.34 1.92-20.08 4.8-3.38 1.6-7.9 4.1-7.3 8.42 1.55 12.97 3.46 25.95 5.23 38.93.75 5.93 1.6 11.86 2.36 17.8.3 2.47 1.7 4.4 4 5.35 4.9 2.65 11.03 3.45 16.63 3.93 7.73.73 14.32.5 22-.95 4.6-.8 13.18-2.25 13.94-8 .92-7.14 1.92-14.27 2.84-21.4l.38-2.17c2.6.64 10.05 2 9.13-3.12zm-40.65-40.86c9.66 0 20.63 1.12 29.2 5.85 1.4.72 4.46 2.32 3.54 4.33-.93 1.92-3.84 2.88-5.6 3.6-2.6.96-5 1.6-7.75 2.16-11.96 2.4-22.54 2.65-34.65.73-5.45-.57-9.97-1.93-14.88-4.33-1.15-.72-3.06-1.84-2.53-3.45.38-.9 1-1.53 1.83-2 3.76-2.4 7.2-3.85 11.58-4.66 6.6-1.6 12.43-2.32 19.25-2.24zm25.15 67.46c-.3 1.84-3.37 2.8-4.83 3.28-3.22 1.12-6.06 1.76-9.43 2.16-7.44.97-13.88.97-21.4 0-4.67-.4-8.58-1.44-12.8-3.52-1.14-.48-1.83-1.52-1.9-2.72-1.62-12.74-3.38-25.4-5.15-38.06l-1.85-13.78c3.84 2.1 7.36 3.37 11.66 4.1 4.68.95 8.6 1.43 13.35 1.75 9.2.64 17.1.24 26.22-1.44 4.83-.72 8.8-2.08 13.1-4.4l-3.37 25.07c-8.58-2.8-15.64-5.6-23.7-9.54-.37-.16-.68-.32-.98-.48-.46-.32-.3-.16-.54-.64-.38-.96-.46-1.6-1.3-2.4-.77-.56-1.6-.8-2.53-.72-2 .08-3.53 1.84-3.38 3.84.16 1.93 1.92 3.45 3.9 3.3.55-.1 1-.25 1.62-.5.6-.15.6-.15 1.22.17 8.2 4 15.33 6.97 24 9.85 1.22.4 1.22 0 1.22 1.04-.07.8-.15 1.53-.3 2.33l-1 7.6zm-24.7-37.9c0 .48-.6.4-.75.16-.23-.32.76-.72.76-.16zm31.52 11.22l.46-3.53c1.6.97 4.3 2.33 5.06 4.1-1.6.63-4.06-.17-5.52-.57z" stroke="#fff" stroke-opacity="0" stroke-width="2" fill="#fff"/><use xlink:href="#o" transform="matrix(1,0,0,1,1210,669) translate(32.623456790123456 17.77777777777778)"/><use xlink:href="#p" transform="matrix(1,0,0,1,1210,669) translate(120.21604938271605 17.77777777777778)"/><path d="M194.82 613.8h-69.7c-2.8 0-5.12-2.28-5.12-5.07v-45.65c0-2.8 2.32-5.08 5.12-5.08h69.7c2.8 0 5.1 2.3 5.1 5.08v45.6c0 2.84-2.23 5.12-5.02 5.12h-.08zm-69.62-52.4c-.96 0-1.76.73-1.76 1.68v45.6c0 .94.8 1.72 1.76 1.72h69.7c.96 0 1.67-.78 1.67-1.73v-45.6c0-.94-.7-1.67-1.67-1.67zM194 636h-68.05c-3.28-.02-5.92-2.65-5.92-5.92v-7.35c0-3.27 2.64-5.94 5.92-5.96H194c3.28 0 6 2.67 6 5.96v7.35c0 3.3-2.72 5.92-6 5.92zm-68.05-15.84c-1.36 0-2.48 1.17-2.48 2.57v7.35c0 1.4 1.12 2.52 2.48 2.54H194c1.44 0 2.56-1.16 2.56-2.58v-7.3c0-1.43-1.12-2.58-2.56-2.58z" stroke="#fff" stroke-opacity="0" fill="#b2b2b2"/><path d="M191.9 607.45h-63.8c-.95 0-1.7-.78-1.7-1.7V566c0-.92.75-1.7 1.7-1.7h63.8c.95 0 1.7.78 1.7 1.7v39.76c0 .9-.75 1.7-1.7 1.7zm-62.06-3.4h60.32V567.7h-60.32zM172.74 623.13h19.16c1.13 0 1.7.57 1.7 1.7V628c0 1.14-.57 1.7-1.7 1.7h-19.16c-1.12 0-1.7-.56-1.7-1.7v-3.17c0-1.13.58-1.7 1.7-1.7zM234 636h-18.45c-3.72 0-6-1.9-6-4.93v-47.04c0-3.3 2.68-6.03 6-6.03H234c3.32 0 6 2.73 6 6.03v4.47h-2.5v-4.47c.03-1.97-1.55-3.54-3.5-3.54h-18.45c-1.95 0-3.53 1.56-3.5 3.53v47.04c0 1.62 1.2 2.5 3.5 2.5H234c2.35 0 3.5-.88 3.5-2.5v-2.9h2.5v2.9c-.06 3.07-2.34 4.93-6 4.93z" stroke="#fff" stroke-opacity="0" fill="#b2b2b2"/><path d="M223.57 582.63h7v2.47h-7v-2.47zM218.92 586.02c-1.17 0-2.12-.9-2.14-2.07 0-1.16.92-2.1 2.1-2.12 1.15-.02 2.1.9 2.12 2.07v.02c0 1.15-.93 2.1-2.08 2.1zm0-2.47c-.2.02-.33.18-.34.37 0 .2.17.37.37.37.2 0 .38-.17.38-.38 0-.22-.2-.38-.4-.37zM239.94 623.2h-2.48v-33.46h-26.68v-2.48h27.9c.7 0 1.26.53 1.26 1.22z" stroke="#fff" stroke-opacity="0" fill="#b2b2b2"/><path d="M238.68 629.06h-27.9v-2.47h26.68v-5.72h2.48v6.95c0 .68-.56 1.23-1.26 1.23z" stroke="#fff" stroke-opacity="0" fill="#b2b2b2"/><path d="M120 632.33c0-3.3 2.7-6 6-6h108c3.3 0 6 2.7 6 6V714c0 3.3-2.7 6-6 6H126c-3.3 0-6-2.7-6-6z" stroke="#000" stroke-opacity="0" stroke-width="3" fill="#fff" fill-opacity="0"/><use xlink:href="#q" transform="matrix(1,0,0,1,125,631.3333333333334) translate(0.33950617283950635 33.52777777777778)"/><use xlink:href="#r" transform="matrix(1,0,0,1,125,631.3333333333334) translate(64.47530864197532 33.52777777777778)"/><use xlink:href="#s" transform="matrix(1,0,0,1,125,631.3333333333334) translate(35.24691358024691 60.19444444444445)"/><path d="M180 538.5V498M180 538.47v1.03" stroke="#999" stroke-width="2" fill="none"/><path d="M180 482.74l4.64 14.26h-9.28z" stroke="#999" stroke-width="2" fill="#999"/><path d="M298.5 578H384c3.3 0 6-2.7 6-6V386c0-3.3 2.7-6 6-6h65.5" stroke="#999" stroke-width="2" fill="none"/><path d="M283.24 578l14.26-4.64v9.28zM476.76 380l-14.26 4.64v-9.28z" stroke="#999" stroke-width="2" fill="#999"/><path d="M298.5 600h163" stroke="#999" stroke-width="2" fill="none"/><path d="M283.24 600l14.26-4.64v9.28zM476.76 600l-14.26 4.64v-9.28z" stroke="#999" stroke-width="2" fill="#999"/><path d="M580 241v40.5M580 241.03V240" stroke="#999" stroke-width="2" fill="none"/><path d="M580 296.76l-4.64-14.26h9.28z" stroke="#999" stroke-width="2" fill="#999"/><path d="M698.5 578H784c3.3 0 6-2.7 6-6V386c0-3.3 2.7-6 6-6h65.5" stroke="#999" stroke-width="2" fill="none"/><path d="M683.24 578l14.26-4.64v9.28zM876.76 380l-14.26 4.64v-9.28z" stroke="#999" stroke-width="2" fill="#999"/><path d="M698.5 600h163" stroke="#999" stroke-width="2" fill="none"/><path d="M683.24 600l14.26-4.64v9.28zM876.76 600l-14.26 4.64v-9.28z" stroke="#999" stroke-width="2" fill="#999"/><path d="M1098.5 600h83" stroke="#999" stroke-width="2" fill="none"/><path d="M1083.24 600l14.26-4.64v9.28zM1196.76 600l-14.26 4.64v-9.28z" stroke="#999" stroke-width="2" fill="#999"/><path d="M232 606.48c-.2-.08-.46-.16-.7-.22l.1-.5c.55-2.66.2-4.8-1.03-5.5-1.17-.68-3.08.02-5.03 1.7-.18.18-.36.34-.57.52-.1-.12-.22-.22-.35-.34-2.03-1.8-4.07-2.56-5.3-1.86-1.16.68-1.52 2.7-1.02 5.22.04.24.1.5.16.74-.27.08-.57.16-.84.26-2.36.84-3.88 2.14-3.88 3.48 0 1.4 1.64 2.8 4.1 3.64.2.06.4.14.62.18-.07.28-.14.54-.18.82-.48 2.46-.12 4.44 1.05 5.1 1.22.7 3.24-.02 5.22-1.74l.47-.42.6.54c1.92 1.66 3.8 2.32 4.97 1.64 1.2-.7 1.6-2.82 1.07-5.38-.04-.2-.1-.4-.13-.6.16-.04.3-.08.43-.14 2.56-.84 4.24-2.22 4.24-3.64 0-1.36-1.56-2.66-4-3.5zm-6.03-3.78c1.66-1.46 3.2-2.02 3.93-1.62.74.44 1.03 2.2.56 4.48-.02.16-.07.3-.1.46-1.04-.24-1.94-.38-3-.48-.6-.88-1.17-1.58-1.9-2.38l.5-.46zm-5.8 8.44c.2.38.42.78.65 1.16.22.38.45.78.7 1.16-.75-.08-1.35-.18-2.07-.34.2-.64.45-1.3.72-1.98zm0-2.26c-.27-.66-.52-1.32-.72-1.96.65-.14 1.32-.26 2.04-.34-.25.38-.48.74-.7 1.14-.2.38-.43.76-.63 1.16zm.5 1.12c.3-.62.62-1.22.96-1.8.36-.6.72-1.18 1.1-1.74.67-.06 1.35-.08 2.04-.08.7 0 1.38.02 2.05.08.38.56.74 1.14 1.08 1.72.36.6.67 1.2 1 1.82-.33.6-.64 1.22-.98 1.82l-1.08 1.74c-.67.04-1.37.06-2.07.06-.7 0-1.37-.02-2.04-.06-.38-.56-.74-1.14-1.08-1.74-.36-.6-.67-1.2-.97-1.82zm8.08 2.28c.23-.38.43-.78.66-1.18.3.68.52 1.26.75 1.98-.72.16-1.35.26-2.1.36.23-.38.48-.76.7-1.16zm.63-3.4c-.2-.4-.42-.78-.65-1.18-.2-.38-.45-.74-.67-1.12.72.1 1.4.22 2.04.36-.22.7-.42 1.26-.72 1.94zm-4.6-5.02c.5.54.9 1 1.32 1.6-.88-.06-1.75-.06-2.65 0 .45-.58.88-1.12 1.32-1.6zm-5.18-2.74c.77-.44 2.43.18 4.2 1.74l.32.3c-.74.8-1.3 1.5-1.93 2.38-1.07.1-1.97.24-3 .46-.07-.22-.1-.46-.16-.68-.42-2.16-.13-3.8.56-4.2zm-1.1 11.76c-.18-.04-.36-.1-.54-.16-1-.32-1.8-.74-2.63-1.4-.47-.32-.74-.78-.83-1.34 0-.82 1.22-1.86 3.26-2.58l.77-.24c.3 1.02.65 1.88 1.1 2.84-.47.98-.8 1.84-1.13 2.88zm5.22 4.38c-.8.72-1.55 1.2-2.52 1.58-.52.24-1.06.26-1.57.06-.72-.42-1-2-.6-4.1.04-.26.1-.5.15-.76 1.05.24 1.95.36 3.03.44.64.88 1.2 1.6 1.95 2.38l-.43.4zm1.1-1.08c-.47-.5-.92-1.04-1.37-1.62.45.02.88.02 1.32.02.45 0 .93 0 1.35-.02-.42.58-.8 1.06-1.3 1.62zm5.82 1.34c-.04.56-.3 1.02-.74 1.38-.7.42-2.23-.12-3.84-1.52-.2-.16-.4-.34-.57-.52.7-.8 1.28-1.5 1.86-2.38 1.08-.1 2-.24 3.06-.48.04.18.1.36.1.54.23 1.02.28 1.94.12 2.98zm.8-4.8l-.35.12c-.35-1.04-.68-1.88-1.15-2.86.44-.96.76-1.78 1.1-2.8.22.06.45.14.65.22 2.1.7 3.35 1.76 3.35 2.58 0 .88-1.37 2-3.6 2.74z" stroke="#000" stroke-opacity="0" stroke-width="7.33" fill="#61dafb"/><path d="M224.77 607.98c1.1 0 2 .9 2 2s-.9 2-2 2-2-.9-2-2 .9-2 2-2M171.5 579.42c-.4-.14-.83-.28-1.26-.4.08-.26.12-.58.2-.85.93-4.62.3-8.33-1.8-9.54-2.02-1.18-5.34.03-8.73 2.94-.3.32-.62.6-.97.9l-.62-.58c-3.5-3.14-7.05-4.45-9.16-3.24-2.02 1.18-2.65 4.68-1.8 9.06.1.4.2.86.28 1.28-.46.14-.97.28-1.44.45-4.1 1.46-6.75 3.7-6.75 6.04 0 2.42 2.85 4.85 7.14 6.3.35.1.7.25 1.05.32-.1.48-.23.93-.3 1.42-.83 4.27-.2 7.7 1.82 8.85 2.1 1.2 5.62-.05 9.05-3.03l.8-.73c.36.3.7.62 1.06.94 3.32 2.88 6.6 4.02 8.62 2.84 2.07-1.2 2.77-4.9 1.88-9.33l-.24-1.05c.27-.07.5-.14.74-.25 4.45-1.45 7.37-3.85 7.37-6.3 0-2.37-2.73-4.63-6.94-6.08zm-10.5-6.56c2.9-2.53 5.58-3.5 6.83-2.8 1.28.75 1.8 3.8.97 7.76-.04.28-.12.52-.16.8-1.83-.42-3.4-.66-5.22-.83-1.05-1.54-2.03-2.76-3.32-4.14l.9-.8zm-10.06 14.64c.35.66.74 1.35 1.13 2 .4.67.78 1.37 1.2 2.03-1.28-.14-2.33-.32-3.58-.6.34-1.1.77-2.25 1.24-3.43zm0-3.92c-.47-1.14-.9-2.3-1.25-3.4 1.12-.24 2.3-.45 3.54-.6-.43.67-.82 1.3-1.2 2-.36.65-.75 1.3-1.1 2zm.9 1.94c.5-1.07 1.05-2.1 1.63-3.12.63-1.04 1.25-2.05 1.9-3.02 1.18-.1 2.35-.14 3.56-.14 1.2 0 2.38.04 3.55.14.67.97 1.3 1.98 1.87 3 .63 1.03 1.17 2.07 1.72 3.14-.55 1.04-1.1 2.12-1.68 3.16l-1.88 3.02c-1.17.07-2.38.1-3.6.1-1.2 0-2.37-.03-3.54-.1-.66-.97-1.28-1.98-1.87-3.02-.6-1.04-1.16-2.08-1.66-3.16zm14 3.96c.4-.66.74-1.35 1.13-2.05.5 1.18.9 2.2 1.28 3.44-1.24.27-2.34.45-3.62.62.4-.67.82-1.33 1.2-2.02zm1.1-5.9c-.36-.7-.75-1.35-1.14-2.05-.35-.66-.78-1.28-1.17-1.94 1.25.16 2.42.37 3.55.6-.4 1.23-.74 2.2-1.25 3.38zm-8-8.7c.85.93 1.55 1.73 2.3 2.77-1.53-.1-3.05-.1-4.6 0 .77-1 1.5-1.95 2.3-2.78zm-8.98-4.76c1.33-.77 4.22.3 7.26 3.02.2.17.4.34.58.52-1.28 1.38-2.26 2.6-3.35 4.13-1.83.16-3.4.4-5.2.78-.1-.38-.18-.8-.26-1.18-.75-3.74-.25-6.6.96-7.28zm-1.9 20.4c-.32-.07-.63-.17-.94-.28-1.76-.55-3.12-1.28-4.57-2.43-.82-.54-1.28-1.34-1.44-2.3 0-1.43 2.12-3.24 5.67-4.5l1.32-.4c.54 1.77 1.12 3.26 1.9 4.92-.82 1.7-1.36 3.2-1.95 5zm9.04 7.6c-1.36 1.25-2.7 2.08-4.37 2.74-.9.42-1.83.45-2.73.1-1.25-.72-1.75-3.47-1.05-7.1.08-.46.2-.88.27-1.33 1.84.42 3.4.63 5.27.77 1.08 1.52 2.05 2.77 3.34 4.13-.23.24-.5.48-.74.7zm1.9-1.87c-.8-.87-1.6-1.8-2.37-2.82.78.04 1.52.04 2.3.04.78 0 1.6 0 2.34-.04-.74 1-1.4 1.84-2.26 2.82zm10.1 2.32c-.07.97-.5 1.77-1.27 2.4-1.2.72-3.87-.2-6.67-2.64-.35-.28-.67-.6-.98-.9 1.25-1.4 2.22-2.6 3.24-4.13 1.87-.18 3.47-.42 5.3-.84.08.32.16.63.2.94.4 1.77.47 3.37.2 5.17zm1.42-8.33l-.63.2c-.6-1.8-1.18-3.25-2-4.95.78-1.68 1.33-3.1 1.9-4.87.4.1.8.24 1.15.38 3.62 1.23 5.8 3.07 5.8 4.5 0 1.52-2.37 3.46-6.23 4.74z" stroke="#000" stroke-opacity="0" stroke-width="7.33" fill="#61dafb"/><path d="M158.93 582.02c1.9 0 3.47 1.56 3.47 3.47 0 1.9-1.56 3.46-3.47 3.46-1.9 0-3.47-1.56-3.47-3.47 0-1.92 1.56-3.48 3.47-3.48" stroke="#000" stroke-opacity="0" stroke-width="7.33" fill="#61dafb"/><defs><path d="M143 4C61 4 22-44 18-125c-5-107 100-154 193-111 17 8 29 25 37 43l-32 9c-13-25-37-40-76-40-61 0-88 39-88 99 0 61 29 100 91 101 35 0 62-11 79-27v-45h-74v-28h105v86C228-13 192 4 143 4" id="t"/><path d="M24-231v-30h32v30H24zM24 0v-190h32V0H24" id="u"/><path d="M59-47c-2 24 18 29 38 22v24C64 9 27 4 27-40v-127H5v-23h24l9-43h21v43h35v23H59v120" id="v"/><path d="M197 0v-115H63V0H30v-248h33v105h134v-105h34V0h-34" id="w"/><path d="M84 4C-5 8 30-112 23-190h32v120c0 31 7 50 39 49 72-2 45-101 50-169h31l1 190h-30c-1-10 1-25-2-33-11 22-28 36-60 37" id="x"/><path d="M115-194c53 0 69 39 70 98 0 66-23 100-70 100C84 3 66-7 56-30L54 0H23l1-261h32v101c10-23 28-34 59-34zm-8 174c40 0 45-34 45-75 0-40-5-75-45-74-42 0-51 32-51 76 0 43 10 73 51 73" id="y"/><g id="a"><use transform="matrix(0.05,0,0,0.05,0,0)" xlink:href="#t"/><use transform="matrix(0.05,0,0,0.05,14,0)" xlink:href="#u"/><use transform="matrix(0.05,0,0,0.05,17.95,0)" xlink:href="#v"/><use transform="matrix(0.05,0,0,0.05,22.95,0)" xlink:href="#w"/><use transform="matrix(0.05,0,0,0.05,35.9,0)" xlink:href="#x"/><use transform="matrix(0.05,0,0,0.05,45.9,0)" xlink:href="#y"/></g><path d="M233-177c-1 41-23 64-60 70L243 0h-38l-65-103H63V0H30v-248c88 3 205-21 203 71zM63-129c60-2 137 13 137-47 0-61-80-42-137-45v92" id="z"/><path d="M100-194c63 0 86 42 84 106H49c0 40 14 67 53 68 26 1 43-12 49-29l28 8c-11 28-37 45-77 45C44 4 14-33 15-96c1-61 26-98 85-98zm52 81c6-60-76-77-97-28-3 7-6 17-6 28h103" id="A"/><path d="M115-194c55 1 70 41 70 98S169 2 115 4C84 4 66-9 55-30l1 105H24l-1-265h31l2 30c10-21 28-34 59-34zm-8 174c40 0 45-34 45-75s-6-73-45-74c-42 0-51 32-51 76 0 43 10 73 51 73" id="B"/><path d="M100-194c62-1 85 37 85 99 1 63-27 99-86 99S16-35 15-95c0-66 28-99 85-99zM99-20c44 1 53-31 53-75 0-43-8-75-51-75s-53 32-53 75 10 74 51 75" id="C"/><path d="M135-143c-3-34-86-38-87 0 15 53 115 12 119 90S17 21 10-45l28-5c4 36 97 45 98 0-10-56-113-15-118-90-4-57 82-63 122-42 12 7 21 19 24 35" id="D"/><path d="M114-163C36-179 61-72 57 0H25l-1-190h30c1 12-1 29 2 39 6-27 23-49 58-41v29" id="E"/><path d="M179-190L93 31C79 59 56 82 12 73V49c39 6 53-20 64-50L1-190h34L92-34l54-156h33" id="F"/><g id="b"><use transform="matrix(0.05,0,0,0.05,0,0)" xlink:href="#z"/><use transform="matrix(0.05,0,0,0.05,12.950000000000001,0)" xlink:href="#A"/><use transform="matrix(0.05,0,0,0.05,22.950000000000003,0)" xlink:href="#B"/><use transform="matrix(0.05,0,0,0.05,32.95,0)" xlink:href="#C"/><use transform="matrix(0.05,0,0,0.05,42.95,0)" xlink:href="#D"/><use transform="matrix(0.05,0,0,0.05,51.95,0)" xlink:href="#u"/><use transform="matrix(0.05,0,0,0.05,55.900000000000006,0)" xlink:href="#v"/><use transform="matrix(0.05,0,0,0.05,60.900000000000006,0)" xlink:href="#C"/><use transform="matrix(0.05,0,0,0.05,70.9,0)" xlink:href="#E"/><use transform="matrix(0.05,0,0,0.05,76.85000000000001,0)" xlink:href="#F"/></g><path fill="#333" d="M205 0l-28-72H64L36 0H1l101-248h38L239 0h-34zm-38-99l-47-123c-12 45-31 82-46 123h93" id="G"/><path fill="#333" d="M210-169c-67 3-38 105-44 169h-31v-121c0-29-5-50-35-48C34-165 62-65 56 0H25l-1-190h30c1 10-1 24 2 32 10-44 99-50 107 0 11-21 27-35 58-36 85-2 47 119 55 194h-31v-121c0-29-5-49-35-48" id="H"/><path fill="#333" d="M141-36C126-15 110 5 73 4 37 3 15-17 15-53c-1-64 63-63 125-63 3-35-9-54-41-54-24 1-41 7-42 31l-33-3c5-37 33-52 76-52 45 0 72 20 72 64v82c-1 20 7 32 28 27v20c-31 9-61-2-59-35zM48-53c0 20 12 33 32 33 41-3 63-29 60-74-43 2-92-5-92 41" id="I"/><path fill="#333" d="M9 0v-24l116-142H16v-24h144v24L44-24h123V0H9" id="J"/><path fill="#333" d="M100-194c62-1 85 37 85 99 1 63-27 99-86 99S16-35 15-95c0-66 28-99 85-99zM99-20c44 1 53-31 53-75 0-43-8-75-51-75s-53 32-53 75 10 74 51 75" id="K"/><path fill="#333" d="M117-194c89-4 53 116 60 194h-32v-121c0-31-8-49-39-48C34-167 62-67 57 0H25l-1-190h30c1 10-1 24 2 32 11-22 29-35 61-36" id="L"/><g id="c"><use transform="matrix(0.06172839506172839,0,0,0.06172839506172839,0,0)" xlink:href="#G"/><use transform="matrix(0.06172839506172839,0,0,0.06172839506172839,14.814814814814813,0)" xlink:href="#H"/><use transform="matrix(0.06172839506172839,0,0,0.06172839506172839,33.2716049382716,0)" xlink:href="#I"/><use transform="matrix(0.06172839506172839,0,0,0.06172839506172839,45.61728395061728,0)" xlink:href="#J"/><use transform="matrix(0.06172839506172839,0,0,0.06172839506172839,56.72839506172839,0)" xlink:href="#K"/><use transform="matrix(0.06172839506172839,0,0,0.06172839506172839,69.07407407407408,0)" xlink:href="#L"/></g><path fill="#333" d="M233-177c-1 41-23 64-60 70L243 0h-38l-65-103H63V0H30v-248c88 3 205-21 203 71zM63-129c60-2 137 13 137-47 0-61-80-42-137-45v92" id="M"/><path fill="#333" d="M84 4C-5 8 30-112 23-190h32v120c0 31 7 50 39 49 72-2 45-101 50-169h31l1 190h-30c-1-10 1-25-2-33-11 22-28 36-60 37" id="N"/><path fill="#333" d="M59-47c-2 24 18 29 38 22v24C64 9 27 4 27-40v-127H5v-23h24l9-43h21v43h35v23H59v120" id="O"/><path fill="#333" d="M100-194c63 0 86 42 84 106H49c0 40 14 67 53 68 26 1 43-12 49-29l28 8c-11 28-37 45-77 45C44 4 14-33 15-96c1-61 26-98 85-98zm52 81c6-60-76-77-97-28-3 7-6 17-6 28h103" id="P"/><g id="d"><use transform="matrix(0.06172839506172839,0,0,0.06172839506172839,0,0)" xlink:href="#M"/><use transform="matrix(0.06172839506172839,0,0,0.06172839506172839,15.987654320987653,0)" xlink:href="#K"/><use transform="matrix(0.06172839506172839,0,0,0.06172839506172839,28.333333333333332,0)" xlink:href="#N"/><use transform="matrix(0.06172839506172839,0,0,0.06172839506172839,40.67901234567901,0)" xlink:href="#O"/><use transform="matrix(0.06172839506172839,0,0,0.06172839506172839,46.851851851851855,0)" xlink:href="#P"/></g><path fill="#333" d="M54-142c48-35 137-8 131 61C196 18 31 33 14-55l32-4c7 23 22 37 52 37 35-1 51-22 54-58 4-55-73-65-99-34H22l8-134h141v27H59" id="Q"/><path fill="#333" d="M126-127c33 6 58 20 58 59 0 88-139 92-164 29-3-8-5-16-6-25l32-3c6 27 21 44 54 44 32 0 52-15 52-46 0-38-36-46-79-43v-28c39 1 72-4 72-42 0-27-17-43-46-43-28 0-47 15-49 41l-32-3c6-42 35-63 81-64 48-1 79 21 79 65 0 36-21 52-52 59" id="R"/><g id="e"><use transform="matrix(0.06172839506172839,0,0,0.06172839506172839,0,0)" xlink:href="#Q"/><use transform="matrix(0.06172839506172839,0,0,0.06172839506172839,12.345679012345679,0)" xlink:href="#R"/></g><path fill="#333" d="M266 0h-40l-56-210L115 0H75L2-248h35L96-30l15-64 43-154h32l59 218 59-218h35" id="S"/><path fill="#333" d="M185-189c-5-48-123-54-124 2 14 75 158 14 163 119 3 78-121 87-175 55-17-10-28-26-33-46l33-7c5 56 141 63 141-1 0-78-155-14-162-118-5-82 145-84 179-34 5 7 8 16 11 25" id="T"/><g id="f"><use transform="matrix(0.06172839506172839,0,0,0.06172839506172839,0,0)" xlink:href="#G"/><use transform="matrix(0.06172839506172839,0,0,0.06172839506172839,14.012345679012345,0)" xlink:href="#S"/><use transform="matrix(0.06172839506172839,0,0,0.06172839506172839,34.938271604938265,0)" xlink:href="#T"/></g><path fill="#333" d="M115-194c55 1 70 41 70 98S169 2 115 4C84 4 66-9 55-30l1 105H24l-1-265h31l2 30c10-21 28-34 59-34zm-8 174c40 0 45-34 45-75s-6-73-45-74c-42 0-51 32-51 76 0 43 10 73 51 73" id="U"/><path fill="#333" d="M24 0v-261h32V0H24" id="V"/><path fill="#333" d="M24-231v-30h32v30H24zM24 0v-190h32V0H24" id="W"/><path fill="#333" d="M101-234c-31-9-42 10-38 44h38v23H63V0H32v-167H5v-23h27c-7-52 17-82 69-68v24" id="X"/><path fill="#333" d="M179-190L93 31C79 59 56 82 12 73V49c39 6 53-20 64-50L1-190h34L92-34l54-156h33" id="Y"/><g id="g"><use transform="matrix(0.06172839506172839,0,0,0.06172839506172839,0,0)" xlink:href="#G"/><use transform="matrix(0.06172839506172839,0,0,0.06172839506172839,14.814814814814813,0)" xlink:href="#H"/><use transform="matrix(0.06172839506172839,0,0,0.06172839506172839,33.2716049382716,0)" xlink:href="#U"/><use transform="matrix(0.06172839506172839,0,0,0.06172839506172839,45.61728395061728,0)" xlink:href="#V"/><use transform="matrix(0.06172839506172839,0,0,0.06172839506172839,50.49382716049382,0)" xlink:href="#W"/><use transform="matrix(0.06172839506172839,0,0,0.06172839506172839,55.37037037037037,0)" xlink:href="#X"/><use transform="matrix(0.06172839506172839,0,0,0.06172839506172839,61.54320987654321,0)" xlink:href="#Y"/></g><path fill="#333" d="M212-179c-10-28-35-45-73-45-59 0-87 40-87 99 0 60 29 101 89 101 43 0 62-24 78-52l27 14C228-24 195 4 139 4 59 4 22-46 18-125c-6-104 99-153 187-111 19 9 31 26 39 46" id="Z"/><path fill="#333" d="M135-143c-3-34-86-38-87 0 15 53 115 12 119 90S17 21 10-45l28-5c4 36 97 45 98 0-10-56-113-15-118-90-4-57 82-63 122-42 12 7 21 19 24 35" id="aa"/><g id="h"><use transform="matrix(0.06172839506172839,0,0,0.06172839506172839,0,0)" xlink:href="#Z"/><use transform="matrix(0.06172839506172839,0,0,0.06172839506172839,15.987654320987653,0)" xlink:href="#K"/><use transform="matrix(0.06172839506172839,0,0,0.06172839506172839,28.333333333333332,0)" xlink:href="#L"/><use transform="matrix(0.06172839506172839,0,0,0.06172839506172839,40.67901234567901,0)" xlink:href="#aa"/><use transform="matrix(0.06172839506172839,0,0,0.06172839506172839,51.79012345679013,0)" xlink:href="#K"/><use transform="matrix(0.06172839506172839,0,0,0.06172839506172839,64.13580246913581,0)" xlink:href="#V"/><use transform="matrix(0.06172839506172839,0,0,0.06172839506172839,69.01234567901236,0)" xlink:href="#P"/></g><path fill="#333" d="M177-190C167-65 218 103 67 71c-23-6-38-20-44-43l32-5c15 47 100 32 89-28v-30C133-14 115 1 83 1 29 1 15-40 15-95c0-56 16-97 71-98 29-1 48 16 59 35 1-10 0-23 2-32h30zM94-22c36 0 50-32 50-73 0-42-14-75-50-75-39 0-46 34-46 75s6 73 46 73" id="ab"/><g id="i"><use transform="matrix(0.06172839506172839,0,0,0.06172839506172839,0,0)" xlink:href="#Z"/><use transform="matrix(0.06172839506172839,0,0,0.06172839506172839,15.987654320987653,0)" xlink:href="#K"/><use transform="matrix(0.06172839506172839,0,0,0.06172839506172839,28.333333333333332,0)" xlink:href="#ab"/><use transform="matrix(0.06172839506172839,0,0,0.06172839506172839,40.67901234567901,0)" xlink:href="#L"/><use transform="matrix(0.06172839506172839,0,0,0.06172839506172839,53.02469135802469,0)" xlink:href="#W"/><use transform="matrix(0.06172839506172839,0,0,0.06172839506172839,57.901234567901234,0)" xlink:href="#O"/><use transform="matrix(0.06172839506172839,0,0,0.06172839506172839,64.07407407407408,0)" xlink:href="#K"/></g><path fill="#333" d="M30 0v-248h33v221h125V0H30" id="ac"/><path fill="#333" d="M115-194c53 0 69 39 70 98 0 66-23 100-70 100C84 3 66-7 56-30L54 0H23l1-261h32v101c10-23 28-34 59-34zm-8 174c40 0 45-34 45-75 0-40-5-75-45-74-42 0-51 32-51 76 0 43 10 73 51 73" id="ad"/><path fill="#333" d="M85-194c31 0 48 13 60 33l-1-100h32l1 261h-30c-2-10 0-23-3-31C134-8 116 4 85 4 32 4 16-35 15-94c0-66 23-100 70-100zm9 24c-40 0-46 34-46 75 0 40 6 74 45 74 42 0 51-32 51-76 0-42-9-74-50-73" id="ae"/><g id="j"><use transform="matrix(0.06172839506172839,0,0,0.06172839506172839,0,0)" xlink:href="#ac"/><use transform="matrix(0.06172839506172839,0,0,0.06172839506172839,12.345679012345679,0)" xlink:href="#I"/><use transform="matrix(0.06172839506172839,0,0,0.06172839506172839,24.691358024691358,0)" xlink:href="#H"/><use transform="matrix(0.06172839506172839,0,0,0.06172839506172839,43.148148148148145,0)" xlink:href="#ad"/><use transform="matrix(0.06172839506172839,0,0,0.06172839506172839,55.49382716049382,0)" xlink:href="#ae"/><use transform="matrix(0.06172839506172839,0,0,0.06172839506172839,67.8395061728395,0)" xlink:href="#I"/></g><g id="k"><use transform="matrix(0.06172839506172839,0,0,0.06172839506172839,0,0)" xlink:href="#T"/><use transform="matrix(0.06172839506172839,0,0,0.06172839506172839,14.814814814814813,0)" xlink:href="#W"/><use transform="matrix(0.06172839506172839,0,0,0.06172839506172839,19.691358024691354,0)" xlink:href="#H"/><use transform="matrix(0.06172839506172839,0,0,0.06172839506172839,38.14814814814814,0)" xlink:href="#U"/><use transform="matrix(0.06172839506172839,0,0,0.06172839506172839,50.493827160493815,0)" xlink:href="#V"/><use transform="matrix(0.06172839506172839,0,0,0.06172839506172839,55.37037037037036,0)" xlink:href="#P"/></g><path fill="#333" d="M30 0v-248h187v28H63v79h144v27H63v87h162V0H30" id="af"/><g id="l"><use transform="matrix(0.06172839506172839,0,0,0.06172839506172839,0,0)" xlink:href="#af"/><use transform="matrix(0.06172839506172839,0,0,0.06172839506172839,14.814814814814813,0)" xlink:href="#H"/><use transform="matrix(0.06172839506172839,0,0,0.06172839506172839,33.2716049382716,0)" xlink:href="#I"/><use transform="matrix(0.06172839506172839,0,0,0.06172839506172839,45.61728395061728,0)" xlink:href="#W"/><use transform="matrix(0.06172839506172839,0,0,0.06172839506172839,50.49382716049382,0)" xlink:href="#V"/></g><path fill="#333" d="M114-163C36-179 61-72 57 0H25l-1-190h30c1 12-1 29 2 39 6-27 23-49 58-41v29" id="ag"/><path fill="#333" d="M108 0H70L1-190h34L89-25l56-165h34" id="ah"/><path fill="#333" d="M96-169c-40 0-48 33-48 73s9 75 48 75c24 0 41-14 43-38l32 2c-6 37-31 61-74 61-59 0-76-41-82-99-10-93 101-131 147-64 4 7 5 14 7 22l-32 3c-4-21-16-35-41-35" id="ai"/><g id="m"><use transform="matrix(0.06172839506172839,0,0,0.06172839506172839,0,0)" xlink:href="#T"/><use transform="matrix(0.06172839506172839,0,0,0.06172839506172839,14.814814814814813,0)" xlink:href="#P"/><use transform="matrix(0.06172839506172839,0,0,0.06172839506172839,27.160493827160494,0)" xlink:href="#ag"/><use transform="matrix(0.06172839506172839,0,0,0.06172839506172839,34.50617283950617,0)" xlink:href="#ah"/><use transform="matrix(0.06172839506172839,0,0,0.06172839506172839,45.61728395061728,0)" xlink:href="#W"/><use transform="matrix(0.06172839506172839,0,0,0.06172839506172839,50.49382716049382,0)" xlink:href="#ai"/><use transform="matrix(0.06172839506172839,0,0,0.06172839506172839,61.60493827160494,0)" xlink:href="#P"/></g><path fill="#333" d="M87 75C49 33 22-17 22-94c0-76 28-126 65-167h31c-38 41-64 92-64 168S80 34 118 75H87" id="aj"/><path fill="#333" d="M33-261c38 41 65 92 65 168S71 34 33 75H2C39 34 66-17 66-93S39-220 2-261h31" id="ak"/><g id="n"><use transform="matrix(0.06172839506172839,0,0,0.06172839506172839,0,0)" xlink:href="#aj"/><use transform="matrix(0.06172839506172839,0,0,0.06172839506172839,7.345679012345679,0)" xlink:href="#T"/><use transform="matrix(0.06172839506172839,0,0,0.06172839506172839,22.160493827160494,0)" xlink:href="#af"/><use transform="matrix(0.06172839506172839,0,0,0.06172839506172839,36.9753086419753,0)" xlink:href="#T"/><use transform="matrix(0.06172839506172839,0,0,0.06172839506172839,51.79012345679011,0)" xlink:href="#ak"/></g><g id="o"><use transform="matrix(0.06172839506172839,0,0,0.06172839506172839,0,0)" xlink:href="#G"/><use transform="matrix(0.06172839506172839,0,0,0.06172839506172839,14.814814814814813,0)" xlink:href="#H"/><use transform="matrix(0.06172839506172839,0,0,0.06172839506172839,33.2716049382716,0)" xlink:href="#I"/><use transform="matrix(0.06172839506172839,0,0,0.06172839506172839,45.61728395061728,0)" xlink:href="#J"/><use transform="matrix(0.06172839506172839,0,0,0.06172839506172839,56.72839506172839,0)" xlink:href="#K"/><use transform="matrix(0.06172839506172839,0,0,0.06172839506172839,69.07407407407408,0)" xlink:href="#L"/></g><g id="p"><use transform="matrix(0.06172839506172839,0,0,0.06172839506172839,0,0)" xlink:href="#T"/><use transform="matrix(0.06172839506172839,0,0,0.06172839506172839,14.814814814814813,0)" xlink:href="#R"/></g><g id="q"><use transform="matrix(0.06172839506172839,0,0,0.06172839506172839,0,0)" xlink:href="#M"/><use transform="matrix(0.06172839506172839,0,0,0.06172839506172839,15.987654320987653,0)" xlink:href="#P"/><use transform="matrix(0.06172839506172839,0,0,0.06172839506172839,28.333333333333332,0)" xlink:href="#I"/><use transform="matrix(0.06172839506172839,0,0,0.06172839506172839,40.67901234567901,0)" xlink:href="#ai"/><use transform="matrix(0.06172839506172839,0,0,0.06172839506172839,51.79012345679013,0)" xlink:href="#O"/></g><g id="r"><use transform="matrix(0.06172839506172839,0,0,0.06172839506172839,0,0)" xlink:href="#S"/><use transform="matrix(0.06172839506172839,0,0,0.06172839506172839,20.493827160493826,0)" xlink:href="#P"/><use transform="matrix(0.06172839506172839,0,0,0.06172839506172839,32.839506172839506,0)" xlink:href="#ad"/></g><g id="s"><use transform="matrix(0.06172839506172839,0,0,0.06172839506172839,0,0)" xlink:href="#G"/><use transform="matrix(0.06172839506172839,0,0,0.06172839506172839,14.814814814814813,0)" xlink:href="#U"/><use transform="matrix(0.06172839506172839,0,0,0.06172839506172839,27.160493827160494,0)" xlink:href="#U"/></g></defs></g></svg>