<svg width="224" height="48" viewBox="0 0 224 48" fill="none" xmlns="http://www.w3.org/2000/svg">
<rect width="48" height="48" rx="6" fill="white"/>
<path d="M21.688 27.544C21.688 28.632 21.56 29.656 21.304 30.616C21.0693 31.576 20.6427 32.4187 20.024 33.144C19.4267 33.848 18.6053 34.4133 17.56 34.84C16.536 35.2453 15.2347 35.448 13.656 35.448C12.2053 35.448 10.9573 35.2773 9.912 34.936C8.86667 34.5733 8.00267 34.1573 7.32 33.688L8.984 29.816C9.60267 30.1787 10.264 30.4987 10.968 30.776C11.672 31.0533 12.44 31.192 13.272 31.192C14.488 31.192 15.3627 30.8933 15.896 30.296C16.4293 29.6987 16.696 28.696 16.696 27.288V12.824H21.688V27.544Z" fill="#282C34"/>
<path d="M43.1406 36.5938V41.6875H23.9375V36.5938H43.1406Z" fill="#08B582"/>
<rect x="41" y="36" width="3" height="6" fill="white"/>
<path d="M82.36 29.68C82.36 31.04 82.2 32.32 81.88 33.52C81.5867 34.72 81.0533 35.7733 80.28 36.68C79.5333 37.56 78.5067 38.2667 77.2 38.8C75.92 39.3067 74.2933 39.56 72.32 39.56C70.5067 39.56 68.9467 39.3467 67.64 38.92C66.3333 38.4667 65.2533 37.9467 64.4 37.36L66.48 32.52C67.2533 32.9733 68.08 33.3733 68.96 33.72C69.84 34.0667 70.8 34.24 71.84 34.24C73.36 34.24 74.4533 33.8667 75.12 33.12C75.7867 32.3733 76.12 31.12 76.12 29.36V11.28H82.36V29.68ZM96.0119 34.84C96.5985 34.84 97.1585 34.8267 97.6919 34.8C98.2252 34.7733 98.6519 34.7333 98.9719 34.68V30.16C98.7319 30.1067 98.3719 30.0533 97.8919 30C97.4119 29.9467 96.9719 29.92 96.5719 29.92C96.0119 29.92 95.4785 29.96 94.9719 30.04C94.4919 30.0933 94.0652 30.2133 93.6919 30.4C93.3185 30.5867 93.0252 30.84 92.8119 31.16C92.5985 31.48 92.4919 31.88 92.4919 32.36C92.4919 33.2933 92.7985 33.9467 93.4119 34.32C94.0519 34.6667 94.9185 34.84 96.0119 34.84ZM95.5319 17.4C97.2919 17.4 98.7585 17.6 99.9319 18C101.105 18.4 102.039 18.9733 102.732 19.72C103.452 20.4667 103.959 21.3733 104.252 22.44C104.545 23.5067 104.692 24.6933 104.692 26V38.4C103.839 38.5867 102.652 38.8 101.132 39.04C99.6119 39.3067 97.7719 39.44 95.6119 39.44C94.2519 39.44 93.0119 39.32 91.8919 39.08C90.7985 38.84 89.8519 38.4533 89.0519 37.92C88.2519 37.36 87.6385 36.64 87.2119 35.76C86.7852 34.88 86.5719 33.8 86.5719 32.52C86.5719 31.2933 86.8119 30.2533 87.2919 29.4C87.7985 28.5467 88.4652 27.8667 89.2919 27.36C90.1185 26.8533 91.0652 26.4933 92.1319 26.28C93.1985 26.04 94.3052 25.92 95.4519 25.92C96.2252 25.92 96.9052 25.96 97.4919 26.04C98.1052 26.0933 98.5985 26.1733 98.9719 26.28V25.72C98.9719 24.7067 98.6652 23.8933 98.0519 23.28C97.4385 22.6667 96.3719 22.36 94.8519 22.36C93.8385 22.36 92.8385 22.44 91.8519 22.6C90.8652 22.7333 90.0119 22.9333 89.2919 23.2L88.5319 18.4C88.8785 18.2933 89.3052 18.1867 89.8119 18.08C90.3452 17.9467 90.9185 17.84 91.5319 17.76C92.1452 17.6533 92.7852 17.5733 93.4519 17.52C94.1452 17.44 94.8385 17.4 95.5319 17.4ZM110.081 18.68C111.095 18.3867 112.401 18.12 114.001 17.88C115.601 17.6133 117.281 17.48 119.041 17.48C120.828 17.48 122.308 17.72 123.481 18.2C124.681 18.6533 125.628 19.3067 126.321 20.16C127.015 21.0133 127.508 22.0267 127.801 23.2C128.095 24.3733 128.241 25.68 128.241 27.12V39H122.281V27.84C122.281 25.92 122.028 24.56 121.521 23.76C121.015 22.96 120.068 22.56 118.681 22.56C118.255 22.56 117.801 22.5867 117.321 22.64C116.841 22.6667 116.415 22.7067 116.041 22.76V39H110.081V18.68ZM151.596 38.28C150.583 38.5733 149.276 38.84 147.676 39.08C146.076 39.3467 144.396 39.48 142.636 39.48C140.849 39.48 139.356 39.24 138.156 38.76C136.983 38.28 136.049 37.6133 135.356 36.76C134.663 35.88 134.169 34.84 133.876 33.64C133.583 32.44 133.436 31.12 133.436 29.68V17.96H139.396V28.96C139.396 30.88 139.649 32.2667 140.156 33.12C140.663 33.9733 141.609 34.4 142.996 34.4C143.423 34.4 143.876 34.3867 144.356 34.36C144.836 34.3067 145.263 34.2533 145.636 34.2V17.96H151.596V38.28ZM163.231 34.72C164.324 34.72 165.097 34.6133 165.551 34.4C166.004 34.1867 166.231 33.7733 166.231 33.16C166.231 32.68 165.937 32.2667 165.351 31.92C164.764 31.5467 163.871 31.1333 162.671 30.68C161.737 30.3333 160.884 29.9733 160.111 29.6C159.364 29.2267 158.724 28.7867 158.191 28.28C157.657 27.7467 157.244 27.12 156.951 26.4C156.657 25.68 156.511 24.8133 156.511 23.8C156.511 21.8267 157.244 20.2667 158.711 19.12C160.177 17.9733 162.191 17.4 164.751 17.4C166.031 17.4 167.257 17.52 168.431 17.76C169.604 17.9733 170.537 18.2133 171.231 18.48L170.191 23.12C169.497 22.88 168.737 22.6667 167.911 22.48C167.111 22.2933 166.204 22.2 165.191 22.2C163.324 22.2 162.391 22.72 162.391 23.76C162.391 24 162.431 24.2133 162.511 24.4C162.591 24.5867 162.751 24.7733 162.991 24.96C163.231 25.12 163.551 25.3067 163.951 25.52C164.377 25.7067 164.911 25.92 165.551 26.16C166.857 26.64 167.937 27.12 168.791 27.6C169.644 28.0533 170.311 28.56 170.791 29.12C171.297 29.6533 171.644 30.2533 171.831 30.92C172.044 31.5867 172.151 32.36 172.151 33.24C172.151 35.32 171.364 36.8933 169.791 37.96C168.244 39.0267 166.044 39.56 163.191 39.56C161.324 39.56 159.764 39.4 158.511 39.08C157.284 38.76 156.431 38.4933 155.951 38.28L156.951 33.44C157.964 33.84 159.004 34.16 160.071 34.4C161.137 34.6133 162.191 34.72 163.231 34.72ZM176.605 39V8.92L182.565 7.96V18.04C182.965 17.9067 183.471 17.7867 184.085 17.68C184.725 17.5467 185.338 17.48 185.925 17.48C187.631 17.48 189.045 17.72 190.165 18.2C191.311 18.6533 192.218 19.3067 192.885 20.16C193.578 21.0133 194.058 22.0267 194.325 23.2C194.618 24.3733 194.765 25.68 194.765 27.12V39H188.805V27.84C188.805 25.92 188.551 24.56 188.045 23.76C187.565 22.96 186.658 22.56 185.325 22.56C184.791 22.56 184.285 22.6133 183.805 22.72C183.351 22.8 182.938 22.8933 182.565 23V39H176.605Z" fill="white"/>
</svg>
